<?xml version="1.0" standalone="no"?>
<!DOCTYPE svg PUBLIC "-//W3C//DTD SVG 20010904//EN"
 "http://www.w3.org/TR/2001/REC-SVG-20010904/DTD/svg10.dtd">
<svg version="1.0" xmlns="http://www.w3.org/2000/svg"
 width="512.000000pt" height="512.000000pt" viewBox="0 0 512.000000 512.000000"
 preserveAspectRatio="xMidYMid meet">

<g transform="translate(0.000000,512.000000) scale(0.100000,-0.100000)"
fill="#000000" stroke="none">
<path d="M260 5031 c-69 -21 -121 -65 -156 -131 -18 -34 -19 -110 -19 -2340
l0 -2305 22 -40 c25 -47 64 -85 113 -111 34 -18 110 -19 2340 -19 l2305 0 40
22 c47 25 85 64 111 113 18 34 19 110 19 2340 0 2230 -1 2306 -19 2340 -26 49
-64 88 -111 113 l-40 22 -2290 2 c-1259 1 -2301 -2 -2315 -6z m4573 -162 c39
-18 47 -50 47 -184 l0 -125 -2320 0 -2320 0 0 125 c0 131 8 166 44 183 31 15
4516 16 4549 1z m47 -2524 l0 -2056 -25 -24 -24 -25 -2271 0 -2271 0 -24 25
-25 24 0 2056 0 2055 2320 0 2320 0 0 -2055z"/>
<path d="M425 4775 c-50 -49 -15 -135 55 -135 41 0 80 39 80 80 0 41 -39 80
-80 80 -19 0 -40 -9 -55 -25z"/>
<path d="M665 4775 c-50 -49 -15 -135 55 -135 41 0 80 39 80 80 0 41 -39 80
-80 80 -19 0 -40 -9 -55 -25z"/>
<path d="M905 4775 c-50 -49 -15 -135 55 -135 41 0 80 39 80 80 0 41 -39 80
-80 80 -19 0 -40 -9 -55 -25z"/>
<path d="M364 4308 c-12 -5 -27 -21 -33 -34 -16 -35 -16 -1233 0 -1267 18 -39
50 -47 189 -47 139 0 171 8 189 47 16 34 16 1232 0 1266 -6 14 -22 30 -36 36
-30 14 -280 13 -309 -1z m196 -668 l0 -520 -40 0 -40 0 0 520 0 520 40 0 40 0
0 -520z"/>
<path d="M843 4308 c-12 -6 -27 -23 -34 -39 -15 -37 2 -82 37 -98 35 -15 753
-15 788 0 35 16 52 61 37 98 -7 15 -24 33 -37 40 -33 15 -759 14 -791 -1z"/>
<path d="M4203 4148 c-33 -16 -48 -61 -33 -97 15 -38 29 -44 118 -50 l72 -6
-444 -444 -443 -443 -84 87 c-220 229 -516 340 -837 314 -275 -23 -542 -164
-715 -379 -81 -101 -167 -269 -197 -385 -84 -331 2 -707 216 -944 20 -23 35
-43 33 -44 -2 -1 -50 -47 -106 -102 l-103 -99 -98 96 c-54 53 -109 99 -124
103 -16 4 -37 1 -54 -8 -41 -22 -710 -697 -719 -725 -16 -54 43 -113 97 -97
13 4 166 149 340 323 l318 316 98 -96 c54 -53 109 -99 124 -103 16 -4 37 -1
54 8 32 17 269 254 276 276 3 11 20 3 67 -29 304 -206 692 -233 1034 -72 l98
46 67 -67 c52 -52 64 -69 54 -79 -7 -7 -12 -28 -12 -47 0 -33 27 -62 423 -459
232 -233 443 -439 469 -458 67 -50 135 -62 213 -39 54 15 70 27 156 114 87 86
99 102 114 156 23 78 11 146 -39 213 -19 26 -225 237 -458 470 -397 395 -426
422 -459 422 -19 0 -40 -5 -47 -12 -10 -10 -27 2 -79 54 l-67 67 47 98 c57
121 83 215 98 349 19 172 -11 367 -82 522 l-30 66 458 458 458 458 6 -72 c6
-89 12 -103 50 -118 37 -16 82 1 98 36 15 33 15 354 0 387 -6 14 -22 30 -36
36 -31 14 -360 14 -390 -1z m-1347 -818 c162 -41 348 -155 447 -275 26 -32 47
-60 47 -64 0 -4 -11 -18 -25 -31 l-25 -23 -22 29 c-109 140 -254 237 -425 286
-112 33 -314 32 -427 0 -223 -64 -400 -211 -501 -417 -66 -132 -80 -195 -80
-355 0 -160 14 -223 80 -355 101 -206 278 -353 501 -417 65 -19 103 -23 214
-23 159 1 220 14 355 80 260 126 424 375 442 667 6 106 -7 216 -37 303 l-18
53 29 28 29 27 16 -38 c41 -99 57 -188 57 -325 0 -107 -5 -152 -22 -215 -84
-314 -322 -552 -636 -636 -114 -30 -317 -31 -430 0 -178 47 -358 163 -468 301
-69 87 -140 227 -168 335 -31 114 -31 317 0 430 94 349 381 606 733 655 89 13
241 4 334 -20z m-23 -239 c133 -47 273 -148 328 -238 l22 -35 -91 -91 -91 -91
-40 37 c-50 45 -80 53 -117 34 -16 -9 -174 -161 -352 -340 l-323 -325 -39 52
c-44 59 -79 128 -106 206 -27 78 -27 282 0 360 51 150 156 290 270 359 65 39
160 79 219 91 71 15 254 5 320 -19z m446 -607 c3 -291 -199 -551 -485 -624
-144 -37 -307 -19 -441 49 l-60 30 293 292 293 292 40 -36 c78 -71 102 -63
241 78 l95 96 12 -48 c6 -26 12 -84 12 -129z m211 -739 l55 -55 -58 -58 -57
-57 -57 57 -58 58 55 55 c30 30 57 55 60 55 3 0 30 -25 60 -55z m1036 -953 c6
-31 2 -38 -79 -119 -81 -81 -88 -85 -119 -79 -27 5 -112 85 -435 409 l-403
402 112 112 113 113 402 -402 c324 -325 404 -409 409 -436z"/>
<path d="M843 4068 c-32 -16 -48 -61 -34 -97 20 -46 44 -51 271 -51 227 0 251
5 271 51 15 37 -2 82 -37 98 -32 14 -440 14 -471 -1z"/>
<path d="M844 3828 c-12 -5 -27 -21 -33 -34 -15 -34 -15 -753 0 -787 18 -39
50 -47 189 -47 139 0 171 8 189 47 7 16 11 144 11 393 0 249 -4 377 -11 393
-6 14 -22 30 -36 36 -30 14 -280 13 -309 -1z m196 -428 l0 -280 -40 0 -40 0 0
280 0 280 40 0 40 0 0 -280z"/>
<path d="M4284 3508 c-12 -5 -27 -21 -33 -34 -16 -35 -16 -1793 0 -1827 19
-41 49 -47 229 -47 180 0 210 6 229 47 8 17 11 283 11 913 0 630 -3 896 -11
913 -6 14 -22 30 -36 36 -31 14 -360 14 -389 -1z m276 -185 c0 -33 -5 -40 -33
-53 -38 -18 -55 -58 -41 -97 5 -16 23 -34 41 -43 32 -15 33 -15 33 -90 0 -75
-1 -75 -33 -90 -38 -18 -55 -58 -41 -97 5 -16 23 -34 41 -43 32 -15 33 -15 33
-90 0 -75 -1 -75 -33 -90 -38 -18 -55 -58 -41 -97 5 -16 23 -34 41 -43 32 -15
33 -15 33 -90 0 -75 -1 -75 -33 -90 -38 -18 -55 -58 -41 -97 5 -16 23 -34 41
-43 32 -15 33 -15 33 -90 0 -75 -1 -75 -33 -90 -38 -18 -55 -58 -41 -97 5 -16
23 -34 41 -43 28 -13 33 -20 33 -52 l0 -38 -80 0 -80 0 0 800 0 800 80 0 80 0
0 -37z"/>
<path d="M363 2868 c-32 -16 -48 -61 -34 -97 20 -48 41 -51 321 -51 l259 0 75
-148 c56 -110 82 -152 101 -160 34 -16 355 -16 389 -1 35 16 52 61 37 98 -19
44 -48 51 -201 51 l-139 0 -75 148 c-56 110 -82 152 -101 160 -34 16 -600 15
-632 0z"/>
<path d="M2604 1028 c-12 -5 -27 -21 -33 -34 -15 -34 -15 -514 0 -548 26 -55
112 -55 138 0 15 34 15 514 0 547 -11 24 -48 48 -72 46 -7 0 -22 -5 -33 -11z"/>
<path d="M515 862 c-38 -24 -101 -93 -110 -122 -18 -58 47 -114 105 -90 35 14
114 97 125 129 9 31 -11 76 -41 90 -34 15 -44 14 -79 -7z"/>
</g>
</svg>
